<?xml version="1.0" standalone="no"?>
<!DOCTYPE svg PUBLIC "-//W3C//DTD SVG 20010904//EN"
 "http://www.w3.org/TR/2001/REC-SVG-20010904/DTD/svg10.dtd">
<svg version="1.0" xmlns="http://www.w3.org/2000/svg"
 width="363.000000pt" height="400.000000pt" viewBox="0 0 363.000000 400.000000"
 preserveAspectRatio="xMidYMid meet">

<g transform="translate(0.000000,400.000000) scale(0.100000,-0.100000)"
fill="#000000" stroke="none">
<path d="M2340 3459 c-263 -40 -447 -127 -622 -295 -105 -101 -96 -11 -104
-1034 -4 -492 -3 -1056 1 -1252 l7 -358 199 0 199 0 0 233 c0 127 4 238 9 246
7 11 19 10 72 -7 155 -50 197 -57 379 -56 161 0 182 2 265 27 225 68 437 207
581 382 171 206 294 568 294 860 0 170 -69 427 -167 618 -128 250 -313 434
-545 541 -177 82 -406 120 -568 95z m335 -89 c142 -41 188 -58 256 -91 189
-94 341 -249 468 -482 224 -407 198 -921 -65 -1330 -114 -176 -345 -352 -560
-425 -234 -80 -485 -65 -733 45 -29 13 -58 25 -65 26 -8 1 -12 -71 -16 -258
l-5 -260 -135 0 -135 0 -3 1213 -2 1213 57 61 c69 72 195 169 273 208 78 39
195 77 290 94 47 8 335 -2 375 -14z"/>
<path d="M2343 3135 c-149 -26 -320 -97 -382 -157 l-31 -30 1 -347 c1 -190 4
-531 8 -756 5 -356 8 -414 22 -436 24 -36 167 -101 352 -159 51 -16 249 -16
317 -1 169 39 311 122 436 254 116 123 197 273 245 452 27 105 36 288 19 392
-59 354 -314 672 -615 769 -100 33 -251 40 -372 19z m234 -165 c8 -18 13 -191
19 -582 5 -447 9 -558 20 -558 23 0 69 21 93 43 53 49 108 172 130 292 6 32
15 61 20 64 5 3 81 5 170 3 190 -3 179 6 163 -145 -21 -194 -100 -355 -243
-499 -70 -70 -103 -94 -170 -126 -134 -64 -185 -75 -348 -70 -135 3 -142 4
-166 28 l-25 25 -10 640 c-5 352 -10 693 -11 758 -1 65 2 122 7 127 10 9 220
28 294 26 37 -1 47 -5 57 -26z"/>
<path d="M1025 3434 c-306 -57 -540 -216 -737 -499 -94 -134 -150 -259 -194
-430 -28 -104 -29 -121 -29 -320 1 -186 3 -219 23 -290 100 -358 270 -620 507
-784 128 -88 242 -136 435 -182 74 -18 328 -18 400 0 97 24 90 6 90 225 0 106
-2 195 -5 198 -3 2 -38 -7 -77 -21 -105 -36 -284 -42 -391 -12 -196 54 -362
171 -476 336 -60 87 -92 154 -128 274 -23 76 -26 105 -27 241 -1 172 16 266
75 404 151 355 519 555 883 480 l77 -16 37 34 c54 50 226 228 230 239 5 14
-135 77 -235 105 -114 33 -336 42 -458 18z m330 -69 c112 -20 229 -58 232 -75
1 -8 -31 -50 -71 -94 l-73 -79 -103 13 c-271 33 -500 -39 -692 -219 -139 -129
-239 -317 -283 -526 -19 -90 -19 -290 0 -381 42 -203 125 -373 244 -497 150
-158 332 -254 532 -279 83 -10 111 -9 199 5 56 9 106 14 111 11 14 -9 11 -220
-3 -232 -23 -18 -195 -35 -301 -29 -484 27 -877 403 -1004 962 -27 121 -25
387 5 512 37 156 100 303 188 435 179 269 433 433 744 481 60 10 201 6 275 -8z"/>
<path d="M1225 2960 c-22 -5 -85 -16 -140 -24 -136 -22 -135 -20 -135 -197 0
-86 4 -140 11 -144 5 -4 22 -3 37 3 15 5 50 14 77 20 170 36 211 47 223 55 9
7 12 46 10 151 -3 158 0 153 -83 136z"/>
<path d="M1135 2476 c-79 -27 -113 -46 -139 -76 l-26 -32 0 -449 c0 -509 -4
-482 82 -493 82 -9 248 -21 258 -18 6 2 10 190 10 532 0 597 10 537 -89 545
-34 3 -72 -1 -96 -9z"/>
</g>
</svg>
